{"title":"Iron Sky (2012) DVDRip XviD AC3 Soup","uid":11565028,"size":1411504800,"categoryP":"video","categoryS":"movies","magnet":"?xt=urn:btih:5e612089c11c6f12a0e02f8ff4ae137b2c2ae811&amp;dn=Iron+Sky+%282012%29+DVDRip+XviD+AC3+Soup&amp;tr=udp%3A%2F%2Ftracker.openbittorrent.com%3A80&amp;tr=udp%3A%2F%2Fopen.demonii.com%3A1337&amp;tr=udp%3A%2F%2Ftracker.coppersurfer.tk%3A6969&amp;tr=udp%3A%2F%2Fexodus.desync.com%3A6969","seeders":6,"leechers":3,"uploader":"peaSoup","files":-1,"time":1416940040,"description":"Storyline\n\nIn the last moments of World War II, a secret Nazi space program evaded destruction by fleeing to the Dark Side of the Moon. During 70 years of utter secrecy, the Nazis construct a gigantic space fortress with a massive armada of flying saucers.        &lt;a href=&quot; http://i.imgur.com/4pu8Xs4.jpg&quot; rel=&quot;nofollow&quot; target=&quot;_NEW&quot;&gt; http://i.imgur.com/4pu8Xs4.jpg&lt;/a&gt;                                                      &lt;a href=&quot; http://i.imgur.com/OPa1SoF.jpg&quot; rel=&quot;nofollow&quot; target=&quot;_NEW&quot;&gt; http://i.imgur.com/OPa1SoF.jpg&lt;/a&gt;                                                      &lt;a href=&quot; http://i.imgur.com/NFO1fFm.jpg&quot; rel=&quot;nofollow&quot; target=&quot;_NEW&quot;&gt; http://i.imgur.com/NFO1fFm.jpg&lt;/a&gt;                                                      &lt;a href=&quot; http://i.imgur.com/pb5KxjB.jpg&quot; rel=&quot;nofollow&quot; target=&quot;_NEW&quot;&gt; http://i.imgur.com/pb5KxjB.jpg&lt;/a&gt;                                                       \nFormat                      : AVI\nFormat/Info                 : Audio Video Interleave\nFormat profile              : OpenDML\nFile size                   : 1.31 GiB\nDuration                    : 1h 28mn\nOverall bit rate            : 2 120 Kbps\nMovie name                  : Iron Sky (2012) DVDRip XviD AC3 Soup\nWriting application         : Lavf55.33.100\nOriginal source form/Name   : IRON_SKY\n\nVideo\nID                          : 0\nFormat                      : MPEG-4 Visual\nFormat profile              : Advanced Simple@L5\nFormat settings, BVOP       : 2\nFormat settings, QPel       : No\nFormat settings, GMC        : No warppoints\nFormat settings, Matrix     : Default (MPEG)\nMuxing mode                 : Packed bitstream\nCodec ID                    : XVID\nCodec ID/Hint               : XviD\nDuration                    : 1h 28mn\nBit rate                    : 1 659 Kbps\nWidth                       : 720 pixels\nHeight                      : 308 pixels\nDisplay aspect ratio        : 2.35:1\nFrame rate                  : 25.000 fps\nColor space                 : YUV\nChroma subsampling          : 4:2:0\nBit depth                   : 8 bits\nScan type                   : Progressive\nCompression mode            : Lossy\nBits/(Pixel*Frame)          : 0.299\nStream size                 : 1.03 GiB (78%)\nWriting library             : XviD 64\n\nAudio\nID                          : 1\nFormat                      : AC-3\nFormat/Info                 : Audio Coding 3\nMode extension              : CM (complete main)\nFormat settings, Endianness : Big\nCodec ID                    : 2000\nDuration                    : 1h 28mn\nBit rate mode               : Constant\nBit rate                    : 448 Kbps\nChannel(s)                  : 6 channels\nChannel positions           : Front: L C R, Side: L R, LFE\nSampling rate               : 48.0 KHz\nBit depth                   : 16 bits\nCompression mode            : Lossy\nStream size                 : 284 MiB (21%)\nAlignment                   : Aligned on interleaves\nInterleave, duration        : 32 ms (0.80 video frame)","torrent":{"xt":"urn:btih:5e612089c11c6f12a0e02f8ff4ae137b2c2ae811","amp;dn":"Iron+Sky+%282012%29+DVDRip+XviD+AC3+Soup","amp;tr":["udp%3A%2F%2Ftracker.openbittorrent.com%3A80","udp%3A%2F%2Fopen.demonii.com%3A1337","udp%3A%2F%2Ftracker.coppersurfer.tk%3A6969","udp%3A%2F%2Fexodus.desync.com%3A6969"],"infoHash":"5e612089c11c6f12a0e02f8ff4ae137b2c2ae811","infoHashBuffer":{"type":"Buffer","data":[94,97,32,137,193,28,111,18,160,224,47,143,244,174,19,123,44,42,232,17]},"announce":[],"urlList":[]}}